<?xml version="1.0" standalone="no"?>
<!DOCTYPE svg PUBLIC "-//W3C//DTD SVG 20010904//EN"
 "http://www.w3.org/TR/2001/REC-SVG-20010904/DTD/svg10.dtd">
<svg version="1.0" xmlns="http://www.w3.org/2000/svg"
 width="1280.000000pt" height="720.000000pt" viewBox="0 0 1280.000000 720.000000"
 preserveAspectRatio="xMidYMid meet">

<g transform="translate(0.000000,720.000000) scale(0.100000,-0.100000)"
fill="#000000" stroke="none">
<path d="M9382 6705 c-136 -30 -273 -118 -361 -233 -60 -77 -121 -228 -121
-299 0 -72 -3 -74 -104 -74 -50 0 -170 -4 -266 -9 -96 -5 -274 -11 -395 -15
-121 -3 -234 -8 -251 -11 l-31 -6 -6 114 c-8 171 -49 270 -156 377 -108 108
-236 161 -389 161 -139 0 -248 -39 -351 -125 -134 -112 -214 -303 -197 -469 4
-36 9 -73 13 -81 4 -13 -2 -16 -33 -15 -22 1 -266 -7 -544 -19 -278 -11 -591
-23 -696 -27 l-190 -7 15 91 c13 78 13 100 2 159 -22 109 -69 200 -146 281
-37 40 -72 72 -77 72 -6 0 -22 9 -37 19 -51 37 -160 64 -251 64 -174 0 -335
-84 -427 -223 -89 -135 -113 -271 -74 -420 11 -41 19 -76 17 -77 -2 -3 -968
-43 -1027 -43 -13 0 -17 16 -22 83 -10 124 -68 278 -140 372 -105 137 -269
243 -424 275 -99 20 -291 9 -381 -23 -186 -65 -339 -201 -416 -368 -56 -123
-69 -181 -70 -314 0 -164 35 -277 129 -412 31 -44 47 -78 50 -106 3 -23 10
-175 15 -337 6 -162 12 -296 14 -298 2 -2 188 4 412 12 225 9 533 21 684 27
151 5 550 21 885 33 336 13 613 21 616 17 4 -3 9 -76 12 -162 6 -155 6 -155
-18 -170 -104 -64 -274 -234 -366 -366 -47 -68 -52 -72 -97 -78 -62 -9 -105
-22 -172 -54 -64 -30 -146 -86 -158 -108 -11 -18 -92 -27 -392 -42 -118 -7
-338 -18 -489 -26 -150 -8 -277 -13 -281 -10 -5 3 -12 20 -15 38 -14 65 -63
150 -145 250 -38 47 -160 121 -255 155 -266 96 -594 -38 -728 -297 -184 -353
3 -785 380 -881 262 -68 530 34 678 258 15 23 30 40 33 38 2 -3 11 -116 18
-252 8 -136 16 -250 19 -252 2 -3 177 4 387 16 211 11 384 19 386 18 1 -2 -7
-38 -18 -82 -73 -282 6 -552 225 -770 39 -39 165 -135 213 -162 l22 -12 0 525
c0 289 1 525 3 525 13 2 499 30 520 30 l27 0 -2 -535 -3 -536 -263 0 c-144 -1
-264 -4 -267 -9 -3 -4 12 -15 33 -24 20 -10 48 -23 62 -31 39 -21 186 -62 285
-81 108 -20 410 -14 514 9 l64 15 64 -44 c88 -60 153 -78 293 -79 113 -1 116
-2 171 -36 232 -145 598 -183 883 -93 134 43 273 121 366 206 39 36 114 129
140 173 13 22 25 42 26 44 2 2 49 -19 106 -47 155 -75 246 -104 403 -127 223
-33 460 -11 663 60 83 29 105 31 122 10 6 -8 37 -24 68 -36 137 -51 291 23
335 162 20 61 21 103 5 163 -11 43 -11 47 18 88 184 261 212 566 77 833 -19
39 -46 85 -60 103 -13 17 -20 32 -15 32 8 0 413 22 736 40 93 5 170 11 171 12
5 7 -48 924 -53 930 -4 4 -77 3 -162 -2 -85 -5 -245 -14 -355 -20 -700 -36
-961 -50 -1047 -56 -68 -5 -98 -3 -98 4 0 14 -110 92 -179 127 -138 69 -339
101 -486 77 l-59 -10 -66 63 c-104 100 -218 182 -347 250 l-53 28 0 142 0 142
38 -2 c21 -2 76 1 122 5 47 5 222 14 390 20 351 12 1148 41 1885 70 281 10
657 25 838 31 l327 13 0 60 c0 34 -5 222 -12 418 -9 274 -9 362 0 380 33 65
34 238 1 353 -40 143 -182 310 -320 378 -130 64 -277 82 -417 52z m-42 -178
c19 -13 143 -90 275 -172 132 -81 259 -160 282 -174 23 -14 42 -29 43 -33 0
-5 -46 -8 -102 -8 -57 0 -174 -5 -262 -10 -180 -10 -160 -15 -311 78 -146 89
-151 103 -76 220 91 140 90 140 151 99z m-4660 -14 c0 -20 -3 -24 -11 -16 -7
7 -9 19 -6 27 10 24 17 19 17 -11z m56 -20 c-11 -11 -17 4 -9 23 7 18 8 18 11
1 2 -10 1 -21 -2 -24z m-113 7 c3 -11 1 -20 -4 -20 -5 0 -9 2 -9 4 0 2 -3 11
-6 20 -3 9 -2 16 4 16 5 0 12 -9 15 -20z m-48 -48 c-8 -8 -25 10 -25 26 0 13
2 13 14 -4 8 -10 13 -21 11 -22z m225 29 c0 -5 -7 -14 -15 -21 -16 -14 -18
-10 -9 14 6 17 24 22 24 7z m-61 -35 c54 -28 63 -86 30 -184 -19 -57 -23 -62
-51 -62 -16 0 -27 -4 -24 -9 3 -5 15 -7 25 -4 15 4 21 -2 26 -26 12 -54 0 -71
-51 -71 -24 0 -47 0 -51 0 -5 0 -11 29 -15 65 -5 36 -15 82 -24 103 -30 69
-34 95 -23 129 21 65 94 92 158 59z m99 -22 c-9 -10 -21 -13 -29 -8 -9 5 -8 9
7 15 31 12 39 10 22 -7z m-303 -4 c3 -5 -1 -10 -9 -10 -8 0 -18 5 -21 10 -3 6
1 10 9 10 8 0 18 -4 21 -10z m3153 -187 c2 -148 0 -173 -13 -173 -12 0 -15 25
-17 158 l-3 157 -360 0 -360 0 -3 -172 c-2 -145 -5 -173 -17 -173 -13 0 -15
28 -15 178 0 126 4 182 12 190 9 9 105 12 393 10 l380 -3 3 -172z m-2823 137
c-3 -5 -16 -10 -28 -10 -18 0 -19 2 -7 10 20 13 43 13 35 0z m-345 -10 c0 -13
-11 -13 -30 0 -12 8 -11 10 8 10 12 0 22 -4 22 -10z m471 -36 c23 -24 24 -32
27 -195 3 -120 1 -169 -7 -169 -6 0 -12 10 -13 23 -3 48 -5 116 -6 210 -2 82
-5 100 -22 117 -26 26 -58 25 -87 -2 -22 -21 -23 -27 -23 -190 0 -105 -4 -168
-10 -168 -6 0 -10 65 -10 175 l0 176 26 24 c37 34 92 34 125 -1z m2199 -4 c0
-6 -38 -10 -95 -10 -57 0 -95 4 -95 10 0 6 38 10 95 10 57 0 95 -4 95 -10z
m267 -6 c3 -8 1 -29 -4 -47 -8 -30 -12 -32 -56 -35 l-47 -3 0 50 0 51 50 0
c37 0 52 -4 57 -16z m131 -36 l3 -48 -49 0 c-49 0 -49 0 -56 38 -10 64 -11 63
47 60 l52 -3 3 -47z m-440 5 c-26 -2 -71 -2 -100 0 -29 2 -8 3 47 3 55 0 79
-1 53 -3z m0 -30 c-26 -2 -71 -2 -100 0 -29 2 -8 3 47 3 55 0 79 -1 53 -3z
m42 -33 c0 -6 -38 -10 -95 -10 -57 0 -95 4 -95 10 0 6 38 10 95 10 57 0 95 -4
95 -10z m260 -65 l0 -45 -50 0 -50 0 0 45 0 45 50 0 50 0 0 -45z m140 0 l0
-45 -50 0 -50 0 0 45 0 45 50 0 50 0 0 -45z m-4559 -4 c29 -29 29 -30 29 -150
l0 -120 -115 6 c-75 4 -119 2 -127 -5 -8 -6 -132 -15 -308 -21 -162 -6 -341
-14 -397 -17 l-103 -6 -1 -57 c0 -48 -2 -52 -10 -31 -6 14 -9 98 -7 198 l3
174 33 29 32 29 471 0 471 0 29 -29z m4029 14 c10 -12 10 -18 0 -30 -25 -30
-61 -7 -46 30 3 8 12 15 19 15 8 0 20 -7 27 -15z m-2360 -165 c0 -33 -4 -60
-10 -60 -6 0 -10 27 -10 60 0 33 4 60 10 60 6 0 10 -27 10 -60z m4970 -126 c0
-65 -11 -74 -95 -74 -60 0 -75 -3 -75 -15 0 -42 -41 -468 -46 -476 -6 -11
-114 -12 -114 -1 0 4 9 109 20 232 11 124 20 231 20 238 0 8 -22 12 -75 12
l-75 0 0 50 c0 60 -3 59 160 63 63 1 152 4 198 5 l82 2 0 -36z m-651 -41 c6
-27 35 -156 65 -287 30 -132 53 -243 50 -248 -3 -4 -32 -8 -64 -8 l-59 0 -7
45 -6 45 -58 0 c-31 0 -79 -3 -105 -6 -44 -7 -48 -10 -65 -49 -10 -23 -26 -45
-35 -49 -25 -9 -105 -7 -105 3 0 4 48 132 106 282 59 151 110 284 115 297 8
20 15 22 83 22 l74 0 11 -47z m-500 -255 c35 -156 64 -287 65 -293 1 -5 -27
-11 -60 -13 l-61 -3 -12 46 -11 45 -53 0 c-28 0 -75 -3 -104 -6 -49 -6 -53 -9
-64 -43 -6 -20 -18 -42 -27 -48 -21 -17 -112 -17 -112 -1 0 10 167 448 216
566 l13 32 74 0 73 0 63 -282z m-429 230 c0 -24 -4 -48 -8 -54 -4 -8 -54 -13
-139 -15 -72 -2 -133 -6 -136 -9 -3 -3 -8 -33 -12 -67 l-7 -63 97 0 98 0 -6
-45 c-2 -26 -8 -49 -12 -53 -3 -4 -46 -9 -95 -10 l-88 -4 -6 -66 c-4 -37 -9
-93 -13 -124 l-6 -58 -58 0 c-33 0 -59 3 -59 8 2 75 51 577 57 583 5 5 60 10
123 12 63 1 150 4 193 5 l77 2 0 -42z m-500 5 c0 -32 -41 -538 -46 -561 -4
-21 -9 -23 -61 -20 l-56 3 -91 175 -91 175 -13 -175 c-8 -96 -17 -178 -21
-183 -4 -4 -31 -10 -59 -14 l-52 -6 0 34 c1 68 47 559 53 566 4 3 29 8 56 11
l50 4 88 -176 c48 -97 90 -176 94 -176 3 0 11 75 18 167 7 92 15 173 18 180 3
8 24 13 59 13 45 0 54 -3 54 -17z m-670 -110 c12 -54 42 -183 66 -287 23 -104
41 -193 38 -198 -3 -4 -31 -8 -63 -8 l-58 0 -9 43 c-11 49 -23 53 -142 42
l-74 -7 -18 -42 c-10 -24 -26 -46 -35 -50 -25 -9 -105 -7 -105 3 0 5 47 130
104 278 58 147 109 280 115 296 10 26 13 27 85 27 l74 0 22 -97z m-430 45 c0
-72 -42 -543 -48 -549 -4 -4 -28 -10 -55 -13 -38 -6 -48 -4 -53 8 -6 14 8 222
22 336 l6 45 -51 -75 c-80 -117 -106 -119 -160 -12 -22 42 -40 74 -41 70 -7
-103 -32 -366 -35 -375 -3 -8 -24 -13 -60 -13 -46 0 -55 3 -55 18 0 25 39 489
46 540 l5 42 59 0 58 0 52 -101 c29 -56 55 -97 60 -93 4 5 36 52 70 104 35 52
68 98 74 102 6 4 32 8 59 8 l47 0 0 -42z m-1030 -20 c111 -58 107 -231 -8
-312 -36 -25 -54 -30 -133 -36 -55 -4 -94 -11 -98 -19 -5 -7 -11 -56 -15 -108
-4 -53 -9 -100 -12 -104 -3 -5 -30 -9 -60 -9 -44 0 -54 3 -54 17 0 25 39 492
46 540 l5 42 87 4 c48 1 112 4 142 5 41 1 67 -4 100 -20z m-414 2 c6 -6 8 -29
5 -53 l-6 -42 -60 -6 c-33 -4 -97 -7 -142 -8 l-83 -1 0 -39 c0 -21 -3 -53 -7
-71 l-6 -33 96 8 97 7 0 -44 c0 -23 -4 -48 -8 -54 -4 -7 -44 -13 -94 -15 -47
-2 -88 -6 -91 -9 -2 -3 -7 -35 -11 -72 l-7 -68 141 7 141 6 -3 -54 -3 -54
-194 -8 c-107 -4 -197 -4 -201 0 -7 7 37 582 44 591 2 1 83 6 182 11 98 4 184
9 190 10 5 0 15 -4 20 -9z m-589 -37 c50 -17 79 -50 93 -104 16 -59 1 -79 -59
-79 -45 0 -49 2 -56 28 -14 58 -66 83 -130 62 -40 -13 -59 -41 -51 -75 6 -24
51 -49 145 -80 67 -22 128 -75 137 -119 13 -74 -33 -158 -110 -199 -55 -29
-183 -31 -238 -3 -50 24 -78 71 -78 129 l0 45 50 7 c58 8 70 3 70 -31 0 -39
33 -64 86 -64 55 0 82 13 95 47 16 43 -9 66 -111 102 -104 38 -153 78 -164
134 -19 99 51 190 164 213 61 13 94 10 157 -13z m-397 -25 c1 -69 -43 -553
-50 -561 -4 -5 -29 -9 -56 -10 l-49 -2 -88 173 c-49 96 -91 171 -94 168 -3 -3
-12 -79 -19 -168 -8 -90 -16 -169 -19 -175 -5 -14 -115 -19 -115 -5 0 4 11
135 25 292 14 157 25 288 25 293 0 4 26 7 58 7 l58 0 64 -131 c36 -72 77 -151
91 -175 l26 -45 12 153 c17 225 13 214 94 217 35 1 37 0 37 -31z m-680 1 c62
-14 105 -50 126 -104 15 -41 16 -59 6 -181 -16 -192 -46 -253 -147 -300 -127
-60 -268 -7 -295 110 -9 39 5 248 21 307 21 81 97 152 179 168 61 12 59 12
110 0z m-350 -20 c0 -10 -64 -92 -163 -211 l-39 -47 83 -160 c46 -88 81 -163
77 -166 -3 -3 -31 -9 -61 -12 l-55 -6 -67 128 -68 127 -26 -33 c-33 -42 -39
-61 -40 -132 -1 -84 -11 -97 -71 -97 -27 0 -51 3 -53 8 -5 8 41 559 48 580 3
7 24 12 60 12 64 0 60 11 45 -140 -5 -52 -7 -96 -6 -98 2 -1 50 53 107 122
109 130 109 130 197 134 17 1 32 -3 32 -9z m2666 -362 c5 -14 -51 -182 -69
-204 -9 -13 -59 -18 -69 -8 -3 3 5 51 17 107 19 91 24 103 46 109 40 12 69 10
75 -4z m708 -566 c7 -10 -40 -581 -48 -589 -3 -3 -28 -7 -55 -10 l-50 -4 -93
183 -92 184 -14 -170 c-7 -93 -17 -177 -21 -185 -5 -10 -26 -16 -60 -18 l-51
-3 1 53 c0 29 10 163 22 298 l22 245 56 3 57 3 88 -170 c48 -94 90 -168 93
-166 4 4 30 273 31 322 0 16 7 23 28 26 51 8 81 7 86 -2z m-626 -309 c35 -155
61 -289 58 -297 -4 -11 -21 -15 -61 -15 l-55 0 -11 45 -11 45 -104 0 -103 0
-12 -40 c-16 -54 -28 -62 -92 -58 l-56 3 115 295 c64 162 121 298 127 302 7 5
41 7 76 6 l65 -3 64 -283z m-538 241 c65 -40 74 -68 66 -215 -12 -231 -33
-286 -128 -331 -45 -22 -73 -27 -184 -33 -72 -3 -134 -3 -137 2 -4 7 37 526
45 574 4 19 73 28 203 26 83 -1 106 -5 135 -23z m3742 -703 c2 -6 2 -30 0 -54
l-4 -44 -78 -7 -79 -7 -5 -41 c-3 -23 -10 -112 -16 -197 -6 -85 -13 -176 -16
-201 l-6 -46 -51 -6 c-28 -4 -55 -3 -59 1 -4 4 -1 86 7 182 7 96 15 204 17
240 l3 65 -72 -4 c-83 -3 -88 1 -75 64 l8 40 189 11 c105 6 200 12 212 12 12
1 23 -3 25 -8z m-6504 -262 l-3 -263 -403 -3 c-324 -2 -404 0 -408 11 -2 7 -6
126 -7 265 l-2 252 413 0 412 0 -2 -262z m5872 236 c45 -10 106 -70 119 -120
12 -47 -1 -260 -21 -327 -28 -93 -123 -158 -232 -158 -87 0 -138 28 -173 96
-32 61 -10 329 32 401 52 89 158 131 275 108z m-386 -23 c8 -12 -34 -574 -42
-583 -4 -4 -31 -10 -59 -14 l-53 -7 0 29 c0 16 9 146 20 289 11 143 20 265 20
272 0 10 14 14 92 21 9 1 19 -2 22 -7z m-374 -18 c1 -28 -42 -571 -45 -581 -3
-9 -22 -12 -61 -10 l-56 3 -85 168 c-47 93 -89 165 -93 160 -4 -4 -12 -82 -18
-172 -7 -115 -15 -167 -24 -172 -16 -11 -95 -12 -101 -1 -6 8 37 579 43 586 3
2 27 6 54 7 59 4 51 14 163 -206 42 -82 78 -145 79 -140 1 6 8 86 14 180 7
108 16 172 23 177 16 10 107 10 107 1z m-696 -32 c10 -15 138 -572 133 -577
-3 -3 -30 -8 -60 -11 l-55 -6 -14 49 c-7 27 -19 49 -26 48 -7 -1 -52 -2 -102
-2 l-89 -2 -12 -40 c-16 -52 -23 -58 -89 -62 -45 -2 -54 0 -52 12 1 8 51 143
109 299 82 216 112 285 128 291 27 11 122 12 129 1z m-511 -27 c55 -19 103
-69 112 -118 12 -63 6 -71 -58 -74 -55 -3 -57 -2 -57 23 0 15 -11 37 -26 52
-22 21 -32 25 -66 20 -83 -11 -107 -72 -108 -274 0 -76 2 -83 26 -102 59 -46
146 -7 160 71 l6 37 -53 3 -54 3 4 45 c1 25 4 46 5 46 0 1 50 5 110 8 l109 8
-5 -85 c-4 -51 -13 -101 -25 -128 -70 -158 -320 -186 -388 -43 -20 42 -22 154
-5 287 16 128 62 188 172 222 58 18 86 18 141 -1z m-388 -13 c5 -10 -34 -582
-41 -590 -2 -2 -26 -6 -53 -9 -58 -5 -47 -20 -159 197 -91 174 -87 174 -97 1
-3 -58 -8 -129 -11 -157 l-6 -53 -60 0 -59 0 5 43 c3 23 13 148 22 277 8 129
20 245 25 258 7 19 16 22 58 22 l50 0 88 -170 c48 -93 91 -170 95 -170 3 0 9
51 13 113 4 61 10 139 14 172 l6 60 40 6 c62 10 63 10 70 0z m-691 -39 c6 -10
136 -555 136 -571 0 -8 -19 -11 -62 -9 l-63 3 -9 44 -9 43 -60 -6 c-33 -3 -79
-6 -101 -6 -41 0 -43 -1 -63 -50 l-21 -50 -56 0 c-42 0 -56 4 -56 14 0 20 208
566 221 583 13 14 134 19 143 5z m-374 -61 l0 -50 -52 -5 c-29 -3 -66 -7 -83
-8 l-30 -3 -18 -239 c-10 -132 -20 -242 -22 -244 -10 -11 -103 -14 -109 -4 -3
6 -2 71 4 144 6 73 13 179 17 236 l6 102 -78 0 -78 0 6 45 c2 26 8 49 12 53 7
8 165 18 323 20 l102 2 0 -49z m-507 22 c4 -6 -37 -577 -42 -591 -1 -2 -26 -2
-57 0 l-56 3 -92 175 -91 175 -13 -175 c-7 -96 -14 -181 -17 -187 -3 -8 -25
-13 -61 -13 l-57 0 7 68 c3 37 13 166 21 287 9 121 18 226 20 233 3 7 24 12
59 12 l55 0 88 -170 c63 -122 90 -165 95 -152 4 9 11 86 17 170 5 84 13 157
16 162 7 12 102 14 108 3z m-690 -30 c9 -15 139 -574 135 -578 -2 -3 -31 -6
-63 -7 l-59 -3 -9 43 -8 42 -104 0 -103 0 -17 -49 -16 -49 -52 -4 c-29 -3 -57
-2 -64 1 -7 4 26 103 101 301 l111 295 35 6 c52 9 108 10 113 2z m-373 -55 c0
-24 -4 -48 -8 -54 -4 -7 -39 -13 -79 -16 -40 -2 -74 -6 -76 -8 -3 -3 -12 -108
-21 -235 -10 -126 -19 -236 -21 -242 -3 -8 -24 -13 -60 -13 l-55 0 0 38 c0 20
4 84 9 142 6 58 13 151 16 208 l7 103 -76 -7 -76 -7 0 52 c0 34 5 53 13 57 11
4 194 15 390 22 l37 2 0 -42z m4320 -1124 l0 -626 -22 6 c-13 3 -137 6 -276 6
l-252 0 2 608 3 607 185 11 c102 6 224 12 273 12 l87 2 0 -626z m-1100 525
c19 -70 28 -239 18 -339 -12 -124 -39 -222 -89 -323 -165 -329 -503 -517 -928
-517 -129 0 -326 47 -442 106 -263 132 -417 331 -491 634 -17 72 -18 354 -1
371 12 12 568 47 578 37 3 -3 -3 -22 -12 -44 -14 -30 -18 -67 -18 -164 0 -116
2 -130 29 -193 32 -77 104 -162 169 -200 146 -85 353 -75 485 25 164 123 219
387 122 578 -11 22 -19 40 -18 41 11 4 421 27 495 28 l92 1 11 -41z m-845 -44
c66 -18 133 -52 185 -95 l35 -28 -24 -26 c-30 -32 -36 -32 -78 0 -81 62 -198
89 -308 72 -66 -10 -110 -28 -172 -70 -23 -15 -45 -28 -49 -28 -14 0 -44 33
-44 49 0 33 143 111 245 134 46 10 155 6 210 -8z m23 -190 c75 -41 81 -51 49
-82 l-26 -27 -53 29 c-73 41 -150 41 -231 1 -56 -27 -59 -27 -78 -10 -29 26
-23 50 17 75 65 40 105 49 189 46 66 -3 90 -8 133 -32z m-98 -155 c26 -26 25
-51 -1 -84 -26 -33 -62 -34 -94 -1 -30 29 -31 45 -4 79 25 32 70 35 99 6z"/>
<path d="M9245 6400 c-6 -10 80 -70 102 -70 26 0 12 28 -27 54 -42 27 -65 32
-75 16z"/>
<path d="M2120 5869 c0 -5 5 -7 10 -4 6 3 10 8 10 11 0 2 -4 4 -10 4 -5 0 -10
-5 -10 -11z"/>
<path d="M8873 5610 c-24 -65 -43 -124 -43 -130 0 -9 19 -11 65 -8 35 2 67 7
70 10 7 7 -33 229 -43 240 -4 4 -26 -46 -49 -112z"/>
<path d="M8360 5708 c0 -3 -20 -63 -45 -133 l-45 -127 69 4 c39 2 72 6 75 9 7
7 -38 237 -48 246 -3 4 -6 4 -6 1z"/>
<path d="M6788 5603 c-8 -27 -29 -85 -46 -130 l-31 -83 62 0 c95 0 94 -1 68
132 -13 62 -27 116 -30 121 -4 4 -14 -14 -23 -40z"/>
<path d="M5236 5594 c-3 -26 -6 -65 -6 -86 0 -33 3 -39 16 -34 9 3 39 6 68 6
66 0 106 33 106 86 0 55 -28 74 -109 74 l-68 0 -7 -46z"/>
<path d="M3262 5555 c-44 -19 -58 -57 -69 -190 -14 -161 1 -195 82 -195 78 0
100 34 114 180 16 149 15 158 -18 191 -32 32 -59 35 -109 14z"/>
<path d="M5582 4438 c-22 -62 -43 -121 -47 -130 -6 -16 1 -18 69 -18 42 0 76
2 76 5 0 9 -52 250 -55 253 -1 2 -21 -48 -43 -110z"/>
<path d="M5001 4418 c-6 -84 -14 -172 -18 -195 l-5 -43 43 0 c64 0 115 17 132
44 15 23 37 181 37 267 0 61 -25 79 -108 79 l-68 0 -13 -152z"/>
<path d="M1704 3911 c-2 -2 -4 -105 -4 -228 l0 -223 290 0 290 0 0 225 c0 173
-3 225 -12 225 -136 3 -561 4 -564 1z"/>
<path d="M2310 3830 l0 -31 63 3 c59 3 62 4 65 31 l3 27 -65 0 -66 0 0 -30z"/>
<path d="M2408 3503 c6 -2 18 -2 25 0 6 3 1 5 -13 5 -14 0 -19 -2 -12 -5z"/>
<path d="M8196 3792 c-22 -24 -29 -44 -37 -98 -14 -111 -11 -216 6 -241 35
-49 128 -34 159 26 8 15 20 81 25 147 9 105 9 122 -7 154 -16 32 -21 35 -67
38 -45 3 -54 0 -79 -26z"/>
<path d="M6762 3578 c-23 -68 -42 -125 -42 -128 0 -6 132 0 139 6 6 6 -42 244
-49 244 -3 0 -25 -55 -48 -122z"/>
<path d="M5171 3502 c-22 -66 -41 -122 -41 -125 0 -4 32 -7 70 -7 60 0 70 3
70 18 0 30 -44 232 -51 232 -3 0 -25 -53 -48 -118z"/>
<path d="M3602 3428 c-23 -68 -42 -125 -42 -128 0 -3 33 -4 73 -2 l73 3 -25
125 c-14 68 -28 124 -31 124 -3 0 -25 -55 -48 -122z"/>
<path d="M3031 6583 c0 -11 3 -13 6 -5 5 14 24 17 21 3 -3 -8 2 -11 18 -11 4
0 1 7 -6 15 -17 20 -40 19 -39 -2z"/>
<path d="M5245 6540 c-3 -5 0 -10 7 -11 7 0 21 -2 31 -4 21 -4 23 11 1 19 -22
8 -32 8 -39 -4z"/>
<path d="M10121 6534 c0 -11 3 -14 6 -6 3 7 2 16 -1 19 -3 4 -6 -2 -5 -13z"/>
<path d="M10180 6499 c0 -5 5 -7 10 -4 6 3 10 8 10 11 0 2 -4 4 -10 4 -5 0
-10 -5 -10 -11z"/>
<path d="M10227 5803 c-3 -5 -1 -17 4 -28 7 -17 8 -17 8 8 1 27 -4 34 -12 20z"/>
<path d="M10251 5794 c0 -11 3 -14 6 -6 3 7 2 16 -1 19 -3 4 -6 -2 -5 -13z"/>
<path d="M10115 4903 c-142 -31 -242 -85 -331 -177 -182 -190 -222 -470 -101
-701 40 -74 163 -201 237 -243 177 -99 434 -95 605 10 28 17 70 50 94 72 40
38 121 138 121 150 0 3 11 29 24 58 36 77 47 128 48 226 2 100 -13 171 -53
260 -75 168 -230 294 -413 336 -62 15 -184 20 -231 9z m459 -309 l46 -7 0
-294 0 -294 -122 3 -123 3 -3 292 c-2 271 -1 292 15 296 28 7 136 8 187 1z
m-289 -129 c25 -24 25 -25 25 -220 l0 -196 -26 -24 c-27 -25 -28 -25 -231 -25
-127 0 -212 4 -225 11 -39 21 -48 67 -48 248 0 168 0 170 26 200 l26 31 214 0
c215 0 215 0 239 -25z"/>
<path d="M10400 4540 c0 -5 11 -10 25 -10 14 0 25 5 25 10 0 6 -11 10 -25 10
-14 0 -25 -4 -25 -10z"/>
<path d="M10460 4540 c0 -5 11 -10 25 -10 14 0 25 5 25 10 0 6 -11 10 -25 10
-14 0 -25 -4 -25 -10z"/>
<path d="M10475 4449 c-4 -6 -4 -13 -1 -16 3 -4 6 -1 6 5 0 6 8 13 18 15 15 4
15 5 0 6 -9 0 -20 -4 -23 -10z"/>
<path d="M10473 4130 c2 -8 14 -16 28 -17 19 -1 20 -1 4 4 -11 3 -24 10 -28
17 -6 7 -7 6 -4 -4z"/>
<path d="M10418 4113 c6 -2 18 -2 25 0 6 3 1 5 -13 5 -14 0 -19 -2 -12 -5z"/>
<path d="M10558 4113 c6 -2 18 -2 25 0 6 3 1 5 -13 5 -14 0 -19 -2 -12 -5z"/>
<path d="M10478 4023 c12 -2 30 -2 40 0 9 3 -1 5 -23 4 -22 0 -30 -2 -17 -4z"/>
<path d="M10130 4089 c0 -11 4 -19 10 -19 5 0 7 7 4 15 -4 9 0 15 10 15 8 0
13 -6 10 -13 -3 -8 3 -13 15 -13 11 0 17 5 14 13 -7 17 8 16 35 -2 18 -14 21
-14 16 -1 -3 9 2 16 13 18 10 2 -15 4 -54 5 -65 0 -73 -2 -73 -18z"/>
<path d="M9840 4085 c0 -13 21 -15 130 -15 109 0 130 2 130 15 0 13 -21 15
-130 15 -109 0 -130 -2 -130 -15z"/>
<path d="M2015 4397 c0 -19 4 -23 19 -19 14 4 17 2 11 -8 -5 -9 -4 -11 4 -6
13 9 11 37 -4 48 -19 14 -30 8 -30 -15z"/>
<path d="M2712 3998 c-17 -17 -15 -39 6 -54 14 -10 20 -10 35 3 22 21 22 40
-2 53 -24 13 -24 13 -39 -2z"/>
<path d="M10709 3841 c8 -5 10 -14 6 -22 -6 -11 -5 -11 5 -2 14 12 6 33 -13
33 -8 0 -7 -3 2 -9z"/>
<path d="M10740 3840 c0 -5 5 -10 10 -10 6 0 10 5 10 10 0 6 -4 10 -10 10 -5
0 -10 -4 -10 -10z"/>
<path d="M10745 3810 c-3 -5 -1 -10 4 -10 6 0 11 5 11 10 0 6 -2 10 -4 10 -3
0 -8 -4 -11 -10z"/>
<path d="M9935 3670 c-6 -20 9 -50 26 -50 4 0 15 7 23 16 12 12 13 20 6 35
-14 25 -47 24 -55 -1z"/>
<path d="M10460 3062 c-93 -26 -177 -72 -241 -134 -77 -73 -113 -129 -149
-226 -26 -72 -30 -96 -30 -185 0 -173 47 -292 161 -408 140 -143 345 -201 538
-153 138 34 247 108 327 220 140 196 147 440 17 642 -35 55 -148 172 -166 172
-5 0 -21 8 -35 19 -90 63 -293 88 -422 53z m410 -231 c6 -12 10 -136 10 -331
0 -195 -4 -319 -10 -331 -10 -18 -24 -19 -270 -19 l-260 0 -15 24 c-14 21 -16
65 -13 341 3 264 6 318 18 325 8 6 131 10 272 10 244 0 258 -1 268 -19z"/>
<path d="M10582 2778 c2 -19 11 -24 44 -28 54 -8 64 -3 64 26 0 22 -3 24 -56
24 -52 0 -55 -1 -52 -22z"/>
<path d="M10561 2599 c-24 -4 -49 -13 -55 -19 -7 -5 -16 -6 -20 -2 -4 4 -6 0
-4 -8 2 -8 -3 -14 -9 -12 -7 1 -13 -5 -13 -14 0 -9 -5 -12 -12 -8 -7 5 -8 3
-3 -5 4 -8 -1 -18 -14 -27 -18 -13 -21 -23 -18 -69 2 -36 10 -62 23 -76 10
-13 13 -19 7 -15 -20 12 -15 -2 15 -40 15 -18 35 -34 44 -34 9 0 19 -4 23 -10
3 -5 12 -7 20 -3 8 3 15 0 15 -6 0 -16 62 -14 104 4 32 14 41 24 37 48 -2 12
17 8 21 -5 8 -22 51 63 56 109 4 36 2 44 -8 38 -10 -6 -12 0 -7 29 3 20 2 34
-2 31 -5 -2 -11 9 -15 26 -3 17 -10 28 -16 24 -5 -3 -10 1 -10 10 0 11 -5 15
-16 11 -10 -4 -13 -2 -8 6 5 8 2 9 -9 5 -10 -4 -16 -2 -14 6 3 15 -53 18 -112
6z m132 -69 c36 -31 49 -60 38 -78 -9 -15 -24 -3 -39 31 -6 15 -25 36 -42 45
-16 9 -30 20 -30 25 0 17 42 5 73 -23z m77 -130 c0 -9 -9 -25 -20 -35 -12 -10
-18 -25 -16 -32 3 -7 1 -13 -3 -13 -5 0 -11 5 -13 11 -5 14 -98 25 -98 12 0
-6 -13 -10 -30 -9 -16 1 -30 4 -30 9 0 4 -5 7 -10 7 -7 0 -7 -6 0 -20 6 -11 7
-20 2 -20 -11 0 -25 38 -23 58 1 8 -14 12 -49 12 -27 0 -50 4 -50 9 0 15 71
17 114 4 43 -14 109 -17 120 -5 8 8 74 28 94 28 6 1 12 -7 12 -16z m-270 -92
c24 -3 24 -4 3 -10 -15 -4 -27 1 -40 15 -10 13 -12 17 -3 10 8 -6 26 -13 40
-15z"/>
<path d="M11076 2991 c-4 -7 -5 -15 -2 -18 9 -9 19 4 14 18 -4 11 -6 11 -12 0z"/>
<path d="M1229 2278 c5 -13 16 -25 26 -26 11 -3 15 0 10 7 -3 6 -11 9 -16 6
-5 -4 -9 3 -9 14 0 12 -4 21 -10 21 -6 0 -6 -9 -1 -22z"/>
<path d="M11197 2257 c-11 -9 -13 -18 -6 -34 14 -38 59 -25 59 17 0 18 -37 30
-53 17z"/>
<path d="M1375 2195 c-169 -41 -305 -152 -381 -310 -90 -188 -85 -377 15 -550
69 -118 187 -215 321 -261 156 -54 366 -28 499 62 324 219 356 677 65 933 -55
48 -165 105 -244 126 -65 18 -205 18 -275 0z m385 -464 c6 -12 10 -101 10
-220 0 -195 -1 -200 -22 -215 -19 -13 -59 -16 -240 -16 -205 0 -219 1 -238 20
-19 19 -20 33 -20 213 0 158 3 197 16 215 15 22 19 22 249 22 221 0 235 -1
245 -19z"/>
<path d="M1467 1642 c-23 -25 -21 -68 3 -92 15 -15 20 -36 22 -102 3 -82 3
-83 31 -86 15 -2 27 1 27 7 0 6 -4 11 -10 11 -5 0 -10 7 -10 15 0 8 6 15 13
15 8 0 9 2 1 8 -6 4 -12 30 -13 58 0 42 4 54 24 72 29 25 32 58 9 90 -19 28
-74 30 -97 4z m74 -28 c17 -21 0 -49 -32 -49 -24 0 -36 23 -25 51 7 19 40 18
57 -2z"/>
<path d="M1994 2133 c-10 -37 31 -59 55 -30 8 10 7 18 -3 32 -20 28 -45 27
-52 -2z"/>
<path d="M9400 1492 c-121 -32 -234 -111 -314 -221 -14 -19 -40 -68 -57 -110
-82 -196 -30 -434 128 -588 263 -255 697 -181 862 147 50 101 65 172 58 281
-15 232 -182 433 -406 490 -93 23 -185 23 -271 1z m498 -344 c17 -17 15 -75
-3 -82 -9 -3 -15 -19 -15 -41 0 -22 6 -38 15 -41 19 -8 22 -146 3 -162 -20
-16 -68 -3 -68 19 0 11 -9 28 -20 39 -38 38 -120 16 -120 -32 0 -25 -6 -27
-162 -30 l-138 -3 -5 26 c-12 55 -68 78 -118 49 -18 -9 -48 -18 -67 -18 l-35
-1 -1 74 c0 41 3 75 8 75 4 0 8 -9 8 -20 0 -15 7 -20 25 -20 14 0 25 -4 25
-10 0 -5 5 -10 11 -10 23 0 38 36 39 88 0 51 0 52 -30 52 -39 0 -40 24 -2 44
22 13 81 15 333 16 224 0 308 -3 317 -12z m-562 -322 c-11 -45 -56 -29 -56 19
0 15 40 25 54 14 5 -4 6 -19 2 -33z m423 27 c1 9 5 17 10 17 16 0 23 -20 17
-46 -9 -33 -43 -33 -52 0 -8 32 6 58 17 30 7 -17 8 -17 8 -1z"/>
<path d="M9337 1063 c-4 -3 -7 -24 -7 -45 l0 -38 45 0 45 0 0 45 0 45 -38 0
c-21 0 -42 -3 -45 -7z"/>
<path d="M9480 1026 l0 -46 46 0 45 0 -3 43 c-3 42 -3 42 -45 45 l-43 3 0 -45z"/>
<path d="M9607 1064 c-4 -4 -7 -25 -7 -46 l0 -39 43 3 c42 3 42 3 42 43 0 39
-1 40 -35 43 -20 2 -39 0 -43 -4z"/>
<path d="M9727 1063 c-4 -3 -7 -24 -7 -45 l0 -38 45 0 45 0 0 45 0 45 -38 0
c-21 0 -42 -3 -45 -7z"/>
<path d="M9480 940 c0 -5 9 -10 20 -10 11 0 20 5 20 10 0 6 -9 10 -20 10 -11
0 -20 -4 -20 -10z"/>
<path d="M6974 1323 c-9 -35 7 -58 41 -58 37 0 53 25 37 59 -17 38 -69 37 -78
-1z"/>
<path d="M4005 1318 c-3 -8 -4 -79 -3 -158 l3 -145 45 0 45 0 0 155 0 155 -43
3 c-28 2 -44 -1 -47 -10z"/>
<path d="M6253 1322 c-7 -4 -19 -24 -28 -45 -8 -20 -22 -37 -30 -37 -24 0 -20
-62 5 -78 17 -10 20 -23 20 -83 l0 -70 38 3 37 3 3 73 c3 67 5 74 27 82 32 12
37 70 6 70 -31 0 -35 19 -7 30 19 7 26 17 26 35 0 23 -4 25 -42 25 -24 0 -48
-4 -55 -8z"/>
<path d="M6687 1323 c-4 -3 -7 -75 -7 -160 l0 -153 40 0 40 0 0 68 c0 70 10
92 42 92 26 0 38 -31 38 -99 l0 -61 40 0 40 0 0 98 c0 53 -4 103 -8 110 -13
20 -68 32 -104 21 -48 -13 -48 -13 -48 41 0 50 0 50 -33 50 -19 0 -37 -3 -40
-7z"/>
<path d="M4473 1303 c-7 -2 -13 -16 -13 -30 0 -16 -7 -27 -20 -30 -15 -4 -20
-14 -20 -39 0 -22 5 -34 14 -34 19 0 26 -22 26 -79 0 -36 5 -53 20 -66 23 -21
83 -26 101 -8 15 15 0 60 -22 66 -17 5 -20 13 -17 44 2 31 7 39 26 41 18 3 22
10 22 37 0 27 -4 34 -22 37 -16 2 -24 11 -27 28 -4 36 -31 48 -68 33z"/>
<path d="M5653 1303 c-7 -2 -13 -18 -13 -34 0 -22 -5 -29 -19 -29 -11 0 -21
-9 -25 -22 -10 -38 -7 -46 17 -50 19 -3 22 -10 25 -53 4 -81 9 -92 46 -105 47
-15 91 2 82 33 -3 12 -6 25 -6 28 0 4 -9 9 -20 12 -32 8 -28 70 6 85 33 16 31
65 -3 70 -18 3 -23 10 -23 32 0 34 -29 49 -67 33z"/>
<path d="M6523 1303 c-7 -2 -13 -18 -13 -34 0 -19 -5 -29 -15 -29 -10 0 -15
-10 -15 -34 0 -21 6 -36 15 -40 10 -3 15 -19 15 -46 0 -66 22 -107 61 -112 54
-8 77 5 71 40 -2 19 -11 32 -23 35 -14 4 -19 14 -19 39 0 28 5 37 26 46 33 16
31 65 -3 70 -18 3 -23 10 -23 32 0 35 -35 50 -77 33z"/>
<path d="M4285 1240 c-16 -3 -54 -5 -82 -2 l-53 5 0 -117 0 -116 40 0 40 0 0
69 c0 72 12 96 47 89 15 -3 19 -16 23 -78 l5 -75 43 -3 42 -3 0 94 c0 76 -3
99 -17 115 -22 25 -49 32 -88 22z"/>
<path d="M4673 1230 c-43 -19 -63 -53 -63 -106 0 -55 24 -90 75 -109 39 -15
51 -16 90 -5 54 15 59 21 40 46 -9 13 -26 19 -56 19 -25 0 -44 5 -46 13 -4 9
14 12 66 12 65 0 71 2 71 20 0 29 -24 82 -44 99 -30 25 -91 30 -133 11z m84
-67 c4 -10 -20 -11 -55 -4 -2 1 0 6 3 12 9 13 47 8 52 -8z"/>
<path d="M5200 1240 c-14 -4 -49 -5 -77 -2 l-53 5 0 -117 0 -116 40 0 40 0 0
69 c0 72 12 96 47 89 15 -3 19 -16 23 -78 l5 -75 40 0 40 0 0 97 c0 105 -7
121 -55 131 -14 2 -36 1 -50 -3z"/>
<path d="M5425 1238 c-42 -15 -62 -35 -75 -74 -15 -45 -5 -84 30 -124 27 -31
34 -33 90 -33 73 0 99 17 80 52 -9 18 -17 21 -40 16 -16 -4 -39 -4 -50 0 -39
12 -19 23 47 24 37 0 71 5 76 10 15 15 -15 92 -43 112 -33 22 -78 29 -115 17z
m70 -72 c0 -5 -12 -10 -27 -10 -28 -2 -34 4 -21 18 10 9 48 3 48 -8z"/>
<path d="M7240 1241 c-14 -5 -48 -6 -77 -3 l-52 5 -6 -35 c-4 -19 -5 -71 -3
-114 l3 -79 40 0 40 0 3 55 c4 86 9 100 37 100 28 0 33 -14 37 -100 l3 -55 40
0 40 0 3 70 c3 104 -4 132 -38 150 -32 16 -33 16 -70 6z"/>
<path d="M7442 1240 c-38 -16 -54 -39 -59 -84 -11 -94 39 -152 117 -135 41 9
48 5 29 -17 -10 -13 -24 -15 -65 -10 -47 5 -52 4 -62 -18 -13 -29 -5 -38 49
-55 48 -15 114 -1 148 33 25 25 26 32 29 157 l4 130 -59 -1 c-32 -1 -69 1 -83
4 -14 3 -35 1 -48 -4z m96 -107 c2 -25 -1 -33 -18 -38 -27 -8 -50 11 -50 40 0
25 14 35 45 32 15 -1 21 -10 23 -34z"/>
<path d="M7720 1236 c-34 -15 -49 -36 -50 -68 0 -37 31 -66 80 -74 22 -4 40
-10 40 -15 0 -13 -35 -11 -66 3 -23 11 -28 10 -46 -12 -16 -20 -17 -25 -5 -37
8 -8 33 -19 56 -24 112 -25 196 61 125 126 -15 14 -39 25 -55 25 -15 0 -31 5
-34 10 -8 13 31 13 55 0 16 -9 22 -6 34 18 14 27 14 30 -7 40 -34 16 -99 21
-127 8z"/>
<path d="M4880 1124 l0 -115 43 3 42 3 3 72 3 72 34 7 c31 6 35 10 35 38 l0
32 -80 2 -80 2 0 -116z"/>
<path d="M5970 1233 c-23 -9 -49 -45 -59 -82 -26 -88 64 -167 160 -141 56 15
89 60 89 120 0 42 -4 51 -35 79 -31 27 -43 31 -88 30 -29 0 -59 -3 -67 -6z
m84 -69 c25 -10 21 -71 -4 -79 -28 -9 -50 11 -50 45 0 34 21 47 54 34z"/>
<path d="M6970 1125 l0 -116 43 3 42 3 0 110 0 110 -42 3 -43 3 0 -116z"/>
<path d="M8924 1183 c-11 -12 -12 -18 -3 -29 16 -20 36 -17 49 5 14 26 13 28
-10 34 -11 3 -27 -2 -36 -10z"/>
<path d="M3079 1007 c-244 -69 -355 -363 -212 -561 77 -106 159 -154 278 -163
155 -12 288 64 357 205 31 62 33 74 33 167 0 92 -2 104 -30 155 -41 75 -108
141 -177 173 -69 33 -180 44 -249 24z m227 -216 c118 -9 136 -30 148 -177 5
-60 3 -76 -12 -94 -32 -39 -68 -30 -126 34 l-52 56 -91 0 -91 0 -45 -50 c-59
-66 -86 -78 -122 -54 l-28 18 7 100 c3 54 12 106 19 115 33 42 52 50 122 51
39 1 88 5 110 10 22 4 49 6 60 3 11 -3 57 -8 101 -12z"/>
<path d="M3142 738 c7 -20 58 -23 58 -4 0 11 -10 16 -31 16 -20 0 -29 -4 -27
-12z"/>
<path d="M3328 730 c-7 -11 -18 -20 -25 -20 -21 0 -14 -33 11 -57 27 -26 56
-30 56 -9 0 8 9 18 20 21 25 8 26 35 1 42 -11 3 -21 13 -24 24 -7 25 -24 24
-39 -1z m32 -40 c0 -5 -7 -10 -16 -10 -8 0 -12 5 -9 10 3 6 10 10 16 10 5 0 9
-4 9 -10z"/>
<path d="M2990 724 c0 -9 -9 -18 -20 -21 -11 -3 -20 -13 -20 -23 0 -10 9 -20
20 -23 11 -3 20 -12 20 -21 0 -23 31 -20 37 3 3 11 13 21 24 24 25 7 25 27 0
34 -11 3 -21 13 -24 24 -6 23 -37 26 -37 3z"/>
<path d="M9146 505 c-3 -8 -1 -15 4 -15 13 0 22 18 11 24 -5 3 -11 -1 -15 -9z"/>
<path d="M9110 479 c0 -5 5 -7 10 -4 6 3 10 8 10 11 0 2 -4 4 -10 4 -5 0 -10
-5 -10 -11z"/>
<path d="M2915 300 c-8 -14 3 -30 21 -30 8 0 14 9 14 20 0 21 -24 28 -35 10z"/>
<path d="M3410 290 c0 -5 5 -10 11 -10 5 0 7 5 4 10 -3 6 -8 10 -11 10 -2 0
-4 -4 -4 -10z"/>
</g>
</svg>
